<?xml version="1.0" encoding="UTF-8"?>
<svg version="1.1" xmlns="http://www.w3.org/2000/svg" width="474" height="106">
<path d="M0 0 C156.42 0 312.84 0 474 0 C474 34.98 474 69.96 474 106 C317.58 106 161.16 106 0 106 C0 71.02 0 36.04 0 0 Z " fill="#747474" transform="translate(0,0)"/>
<path d="M0 0 C71.61 0 143.22 0 217 0 C216 7 216 7 215.5 9.3125 C214.87062274 12.69540275 214.57560097 16.0800086 214.25 19.50390625 C213.85238381 23.47385536 213.34345491 27.41152103 212.5 31.3125 C211.87086314 34.69411062 211.57595604 38.07746154 211.25 41.5 C210.79004972 46.09950284 210.12118619 50.51525522 209 55 C133.1 55 57.2 55 -21 55 C-19.68 54.34 -18.36 53.68 -17 53 C-17 52.34 -17 51.68 -17 51 C-16.4225 50.62875 -15.845 50.2575 -15.25 49.875 C-12.04271056 47.2022588 -10.53445481 43.84429902 -9 40 C-9 39.34 -9 38.68 -9 38 C-6.36 38 -3.72 38 -1 38 C-1 28.76 -1 19.52 -1 10 C-6.94 10 -12.88 10 -19 10 C-19 9.67 -19 9.34 -19 9 C-20.36125 8.8453125 -20.36125 8.8453125 -21.75 8.6875 C-25.04959089 7.98950962 -26.56034847 7.2589366 -29 5 C-29.33 4.34 -29.66 3.68 -30 3 C-20.43 2.67 -10.86 2.34 -1 2 C-0.67 1.34 -0.34 0.68 0 0 Z " fill="#434343" transform="translate(178,0)"/>
<path d="M0 0 C27.39 0 54.78 0 83 0 C82.67 3.3 82.34 6.6 82 10 C81.92285566 11.72410329 81.86977024 13.44995486 81.8671875 15.17578125 C81.86589844 16.02333984 81.86460937 16.87089844 81.86328125 17.74414062 C81.86714844 18.59169922 81.87101562 19.43925781 81.875 20.3125 C81.87113281 21.17939453 81.86726563 22.04628906 81.86328125 22.93945312 C81.87371474 29.74730276 83.05085902 35.46464495 85 42 C85.28875 43.051875 85.5775 44.10375 85.875 45.1875 C87.60132543 49.50331358 90.19523611 51.46349074 94 54 C68.7607158 54.83617151 43.55371545 55.13492433 18.30157471 55.06866455 C13.84102894 55.05814562 9.38047665 55.05380804 4.91992188 55.04882812 C-3.72006874 55.03833224 -12.3600296 55.02143624 -21 55 C-19.68 54.34 -18.36 53.68 -17 53 C-17 52.34 -17 51.68 -17 51 C-16.4225 50.62875 -15.845 50.2575 -15.25 49.875 C-12.04271056 47.2022588 -10.53445481 43.84429902 -9 40 C-9 39.34 -9 38.68 -9 38 C-6.36 38 -3.72 38 -1 38 C-1 28.76 -1 19.52 -1 10 C-6.94 10 -12.88 10 -19 10 C-19 9.67 -19 9.34 -19 9 C-20.36125 8.8453125 -20.36125 8.8453125 -21.75 8.6875 C-25.04959089 7.98950962 -26.56034847 7.2589366 -29 5 C-29.33 4.34 -29.66 3.68 -30 3 C-20.43 2.67 -10.86 2.34 -1 2 C-0.67 1.34 -0.34 0.68 0 0 Z " fill="#565656" transform="translate(178,0)"/>
<path d="M0 0 C27.06 0 54.12 0 82 0 C80 6 80 6 79 8 C78.34 8 77.68 8 77 8 C76.67 9.98 76.34 11.96 76 14 C75.34 14 74.68 14 74 14 C73.67 15.98 73.34 17.96 73 20 C72.34 20 71.68 20 71 20 C70.67 21.98 70.34 23.96 70 26 C69.34 26 68.68 26 68 26 C67.731875 26.825 67.46375 27.65 67.1875 28.5 C65.87475078 32.36915561 64.44898716 36.17994294 63 40 C62.34 40 61.68 40 61 40 C60.34 41.98 59.68 43.96 59 46 C56.69 50.62 54.38 55.24 52 60 C34.84 60 17.68 60 0 60 C0 40.2 0 20.4 0 0 Z " fill="#6D6D6D" transform="translate(0,0)"/>
<path d="M0 0 C-0.16298584 1.28189209 -0.32597168 2.56378418 -0.49389648 3.88452148 C-1.04757808 8.88767648 -1.12818046 13.81848777 -1.09765625 18.84765625 C-1.0962413 19.74495956 -1.09482635 20.64226288 -1.09336853 21.5667572 C-1.0878251 24.39870714 -1.07528358 27.23057445 -1.0625 30.0625 C-1.05747767 31.99674364 -1.05291606 33.93098853 -1.04882812 35.86523438 C-1.03787429 40.57685417 -1.02064953 45.28841313 -1 50 C-8.92 50.495 -8.92 50.495 -17 51 C-17 51.66 -17 52.32 -17 53 C5.11 53 27.22 53 50 53 C50 53.33 50 53.66 50 54 C102.8 54.33 155.6 54.66 210 55 C210 55.33 210 55.66 210 56 C102.75 56 -4.5 56 -115 56 C-107 39 -107 39 -103 31 C-79.9 31 -56.8 31 -33 31 C-55.77 30.67 -78.54 30.34 -102 30 C-93.11111111 11.11111111 -93.11111111 11.11111111 -89.8125 4.78515625 C-88.86191565 3.02350634 -88.86191565 3.02350634 -89 1 C-59.32851277 0.29496466 -29.68013224 -0.16273375 0 0 Z " fill="#A4A4A4" transform="translate(178,0)"/>
<path d="M0 0 C18.81 0 37.62 0 57 0 C57 18.15 57 36.3 57 55 C31.26 55 5.52 55 -21 55 C-20 48 -20 48 -19.4375 45.375 C-18.92451565 42.99272115 -18.92451565 42.99272115 -19 40.5 C-19 37.84372588 -18.53228472 35.60228086 -18 33 C-17.62605219 30.00336414 -17.3138308 27.00380908 -17 24 C-11.72 24 -6.44 24 -1 24 C-1.01160156 22.43507813 -1.02320313 20.87015625 -1.03515625 19.2578125 C-1.04453363 17.21354286 -1.05363389 15.16927193 -1.0625 13.125 C-1.07087891 12.09246094 -1.07925781 11.05992188 -1.08789062 9.99609375 C-1.09272461 8.51689453 -1.09272461 8.51689453 -1.09765625 7.0078125 C-1.10551147 5.64100342 -1.10551147 5.64100342 -1.11352539 4.24658203 C-1 2 -1 2 0 0 Z " fill="#212121" transform="translate(417,0)"/>
<path d="M0 0 C1.43444773 0.00187274 2.86889612 0.00329257 4.30334473 0.00428772 C8.01855337 0.00804569 11.73372083 0.01781561 15.44891357 0.0289917 C19.2641138 0.03935324 23.07932091 0.04381641 26.89453125 0.04882812 C34.33595596 0.05944636 41.77734714 0.07643826 49.21875 0.09765625 C48.28125 6.80859375 48.28125 6.80859375 47.71875 9.41015625 C47.08937274 12.793059 46.79435097 16.17766485 46.46875 19.6015625 C46.07113381 23.57151161 45.56220491 27.50917728 44.71875 31.41015625 C44.08983311 34.79058453 43.79392816 38.17194916 43.47265625 41.59375 C43.14996495 44.7759827 42.67103524 47.93165954 42.21875 51.09765625 C42.21875 52.08765625 42.21875 53.07765625 42.21875 54.09765625 C21.42875 54.09765625 0.63875 54.09765625 -20.78125 54.09765625 C-20.78125 53.76765625 -20.78125 53.43765625 -20.78125 53.09765625 C-20.03875 53.01515625 -19.29625 52.93265625 -18.53125 52.84765625 C-15.66007017 52.33637006 -15.66007017 52.33637006 -14 50.06640625 C-9.95258525 46.47503823 -4.95313231 47.8727918 0.21875 48.09765625 C0.21875 41.49765625 0.21875 34.89765625 0.21875 28.09765625 C-10.34125 28.09765625 -20.90125 28.09765625 -31.78125 28.09765625 C-32.91967482 16.71340804 -32.91967482 16.71340804 -32.90625 11.22265625 C-32.90882813 10.15273437 -32.91140625 9.0828125 -32.9140625 7.98046875 C-32.79920617 5.48741077 -32.42643811 3.48555703 -31.78125 1.09765625 C-21.1742356 0.3221994 -10.63994744 -0.04186736 0 0 Z " fill="#878787" transform="translate(345.78125,-0.09765625)"/>
<path d="M0 0 C8.25 0 16.5 0 25 0 C24.67 0.99 24.34 1.98 24 3 C29.61 3.33 35.22 3.66 41 4 C41 19.18 41 34.36 41 50 C36.38 50.33 31.76 50.66 27 51 C33.93 51.495 33.93 51.495 41 52 C41 52.33 41 52.66 41 53 C61.295 53.495 61.295 53.495 82 54 C82 54.33 82 54.66 82 55 C46.03 55 10.06 55 -27 55 C-27 54.67 -27 54.34 -27 54 C-21.06 53.67 -15.12 53.34 -9 53 C-9 40.13 -9 27.26 -9 14 C-5.535 13.505 -5.535 13.505 -2 13 C-1.90912109 11.84371094 -1.90912109 11.84371094 -1.81640625 10.6640625 C-1.73261719 9.66117188 -1.64882813 8.65828125 -1.5625 7.625 C-1.48128906 6.62726562 -1.40007812 5.62953125 -1.31640625 4.6015625 C-1 2 -1 2 0 0 Z " fill="#171717" transform="translate(305,0)"/>
<path d="M0 0 C7.92 0 15.84 0 24 0 C24.02290249 7.38732675 24.04283157 14.77453132 24.05493164 22.16186523 C24.05997363 24.67716895 24.06680703 27.19246972 24.07543945 29.70776367 C24.08751094 33.31429775 24.09322949 36.92079323 24.09765625 40.52734375 C24.10281754 41.65961899 24.10797882 42.79189423 24.11329651 43.95848083 C24.11337204 44.99948441 24.11344757 46.04048798 24.11352539 47.11303711 C24.115746 48.03459091 24.11796661 48.95614471 24.12025452 49.90562439 C24 52 24 52 23 53 C20.04294679 53.08868299 17.10934944 53.11520296 14.15234375 53.09765625 C12.82270348 53.09553383 12.82270348 53.09553383 11.46620178 53.09336853 C8.62326746 53.08775215 5.78041069 53.07519691 2.9375 53.0625 C1.01497509 53.05748711 -0.90755104 53.05292384 -2.83007812 53.04882812 C-7.55341549 53.03777741 -12.27669458 53.02050183 -17 53 C-17 52.34 -17 51.68 -17 51 C-16.4225 50.62875 -15.845 50.2575 -15.25 49.875 C-12.04271056 47.2022588 -10.53445481 43.84429902 -9 40 C-9 39.34 -9 38.68 -9 38 C-6.36 38 -3.72 38 -1 38 C-1 28.76 -1 19.52 -1 10 C-6.94 10 -12.88 10 -19 10 C-19 9.67 -19 9.34 -19 9 C-20.36125 8.8453125 -20.36125 8.8453125 -21.75 8.6875 C-25.04959089 7.98950962 -26.56034847 7.2589366 -29 5 C-29.33 4.34 -29.66 3.68 -30 3 C-20.43 2.67 -10.86 2.34 -1 2 C-0.67 1.34 -0.34 0.68 0 0 Z " fill="#595959" transform="translate(178,0)"/>
<path d="M0 0 C4.62 0 9.24 0 14 0 C14 17.82 14 35.64 14 54 C0.47 54 -13.06 54 -27 54 C-27 53.67 -27 53.34 -27 53 C-18.585 52.505 -18.585 52.505 -10 52 C-10 35.83 -10 19.66 -10 3 C-5.545 2.505 -5.545 2.505 -1 2 C-0.67 1.34 -0.34 0.68 0 0 Z " fill="#646464" transform="translate(460,0)"/>
<path d="M0 0 C7.92 0 15.84 0 24 0 C23 7 23 7 22.5 9.3125 C21.87062274 12.69540275 21.57560097 16.0800086 21.25 19.50390625 C20.85238381 23.47385536 20.34345491 27.41152103 19.5 31.3125 C18.87132366 34.69163531 18.57552988 38.07174572 18.25390625 41.4921875 C18.03306567 43.67341288 17.75954426 45.83187104 17.4375 48 C16.9518977 50.82455546 16.9518977 50.82455546 17 53 C6.44 53 -4.12 53 -15 53 C-15 45.41 -15 37.82 -15 30 C-10.38 29.67 -5.76 29.34 -1 29 C-1.01740234 26.11121094 -1.01740234 26.11121094 -1.03515625 23.1640625 C-1.04453319 20.65104263 -1.05363349 18.13802172 -1.0625 15.625 C-1.07087891 14.35398437 -1.07925781 13.08296875 -1.08789062 11.7734375 C-1.09111328 10.56171875 -1.09433594 9.35 -1.09765625 8.1015625 C-1.10289307 6.98088379 -1.10812988 5.86020508 -1.11352539 4.70556641 C-1 2 -1 2 0 0 Z " fill="#000000" transform="translate(371,0)"/>
<path d="M0 0 C13.53 0 27.06 0 41 0 C40.67 1.65 40.34 3.3 40 5 C39.34 5.33 38.68 5.66 38 6 C37.67 6.66 37.34 7.32 37 8 C35.35 8 33.7 8 32 8 C31.67 8.66 31.34 9.32 31 10 C29.63875 9.87625 29.63875 9.87625 28.25 9.75 C24.92725947 9.69590532 24.92725947 9.69590532 22.6875 11.875 C20.97049329 13.88733802 20.97049329 13.88733802 20 16 C19.67257813 16.61617187 19.34515625 17.23234375 19.0078125 17.8671875 C14.83250466 26.70330409 14.8269882 37.4809646 17.875 46.625 C18.98844349 48.97560293 20.09746494 50.27042267 22 52 C22 52.33 22 52.66 22 53 C14.41 53 6.82 53 -1 53 C-1.02291734 45.77339816 -1.04284216 38.54692168 -1.05493164 31.3203125 C-1.05996989 28.86034722 -1.0668006 26.40038495 -1.07543945 23.94042969 C-1.08752723 20.41079975 -1.09323329 16.88120931 -1.09765625 13.3515625 C-1.10281754 12.24632233 -1.10797882 11.14108215 -1.11329651 10.00234985 C-1.11337204 8.98144257 -1.11344757 7.96053528 -1.11352539 6.90869141 C-1.115746 6.00712311 -1.11796661 5.10555481 -1.12025452 4.17666626 C-1 2 -1 2 0 0 Z " fill="#000000" transform="translate(202,0)"/>
<path d="M0 0 C-0.33 1.32 -0.66 2.64 -1 4 C-11.56 4 -22.12 4 -33 4 C-33 3.01 -33 2.02 -33 1 C-21.97991499 0.16941486 -11.05016019 -0.12308347 0 0 Z " fill="#929292" transform="translate(347,0)"/>
</svg>
