<?xml version="1.0" encoding="UTF-8"?>
<svg version="1.1" xmlns="http://www.w3.org/2000/svg" width="600" height="73">
<path d="M0 0 C198 0 396 0 600 0 C600 24.09 600 48.18 600 73 C402 73 204 73 0 73 C0 48.91 0 24.82 0 0 Z " fill="#FCFCFC" transform="translate(0,0)"/>
<path d="M0 0 C2.97 0 5.94 0 9 0 C9 19.8 9 39.6 9 60 C6.03 60 3.06 60 0 60 C-0.495 58.02 -0.495 58.02 -1 56 C-1.43828125 56.3609375 -1.8765625 56.721875 -2.328125 57.09375 C-7.43454447 60.83015449 -11.65219147 61.83028266 -17.9609375 61.55078125 C-24.49469175 60.36664327 -29.29957194 57.04051367 -33.5 52 C-36.76972875 45.4605425 -38.1633503 39.69021609 -36.3828125 32.51171875 C-34.12882159 25.93924083 -30.7686172 21.8494858 -25 18 C-19.97210581 15.5908007 -14.40998689 14.9471156 -9.0390625 16.60546875 C-6.1399107 17.81039049 -3.61249911 19.25833393 -1 21 C-0.67 14.07 -0.34 7.14 0 0 Z " fill="#101729" transform="translate(460,5)"/>
<path d="M0 0 C0.99 0.66 1.98 1.32 3 2 C3.33 0.68 3.66 -0.64 4 -2 C7.3 -2 10.6 -2 14 -2 C14 12.19 14 26.38 14 41 C10.7 41 7.4 41 4 41 C3.505 39.02 3.505 39.02 3 37 C2.56171875 37.3609375 2.1234375 37.721875 1.671875 38.09375 C-3.4972622 41.87604552 -7.71973805 42.77391479 -14.09765625 42.484375 C-20.09585522 41.48332968 -23.61262637 38.38737363 -27.8125 34.1875 C-31.40868251 28.94734834 -33.70482328 23.64892299 -33.41015625 17.140625 C-32.07792729 10.18765862 -28.33814832 4.38055928 -22.75 0.1171875 C-15.16490368 -4.72508381 -7.60655279 -3.87785044 0 0 Z " fill="#141A2C" transform="translate(223,24)"/>
<path d="M0 0 C2.52245317 2.2421806 4.98878624 4.53395621 7.44921875 6.84375 C12.55848204 11.39485847 16.16179406 13.19997891 23.03515625 13.1328125 C28.51460602 12.47669716 33.27254087 9.3243149 37.44921875 5.84375 C36.79384101 12.83444592 32.48656362 18.1480023 27.44921875 22.71875 C19.69258738 29.09803562 10.22037406 29.71759316 0.44921875 28.84375 C-8.96191761 27.07063735 -15.16855834 21.45825428 -22.02197266 15.21923828 C-28.38396544 9.49527352 -31.8667051 7.48580372 -40.5703125 7.55859375 C-44.52376799 7.93684047 -46.58898584 9.24314915 -49.55078125 11.84375 C-50.97390625 12.9575 -50.97390625 12.9575 -52.42578125 14.09375 C-53.12703125 14.67125 -53.82828125 15.24875 -54.55078125 15.84375 C-52.37151953 7.58549508 -48.96968849 0.92181318 -41.80078125 -4.03125 C-28.55028931 -11.40370416 -11.34186277 -9.58760834 0 0 Z " fill="#39BDF8" transform="translate(85.55078125,8.15625)"/>
<path d="M0 0 C2.65332105 2.10032428 4.98550343 4.3594359 7.3125 6.8125 C11.88192166 11.47496418 16.6523932 14.29616555 23.25 14.8125 C28.81963806 14.59010126 32.52733116 11.45799884 36.8125 8.1875 C37.4725 7.8575 38.1325 7.5275 38.8125 7.1875 C36.92197716 14.96565112 33.58945116 21.10387108 26.71875 25.5390625 C17.34108395 30.40285198 5.44571103 31.06049374 -4.6875 28.19921875 C-11.33574258 25.12613787 -15.96100015 20.73005681 -20.96875 15.46875 C-25.72265104 10.58093625 -29.66109526 8.94635565 -36.5625 8.5625 C-43.19399735 8.73116236 -47.24689881 10.89798579 -52.1875 15.1875 C-50.29552355 7.40336832 -46.96101663 1.32153559 -40.12890625 -3.1640625 C-27.22080315 -9.94752689 -11.66725912 -8.3051291 0 0 Z " fill="#38BDF8" transform="translate(53.1875,43.8125)"/>
<path d="M0 0 C2.97 0 5.94 0 9 0 C12.37139226 8.8899282 15.21812532 17.91330279 18 27 C18.23710693 26.21761963 18.47421387 25.43523926 18.71850586 24.62915039 C19.78823688 21.1059319 20.86280096 17.58420609 21.9375 14.0625 C22.31068359 12.83080078 22.68386719 11.59910156 23.06835938 10.33007812 C23.60493164 8.5753418 23.60493164 8.5753418 24.15234375 6.78515625 C24.48226318 5.70113525 24.81218262 4.61711426 25.15209961 3.50024414 C26 1 26 1 27 0 C28.51928038 -0.07179964 30.04167482 -0.08392007 31.5625 -0.0625 C32.38878906 -0.05347656 33.21507812 -0.04445313 34.06640625 -0.03515625 C34.70449219 -0.02355469 35.34257812 -0.01195313 36 0 C37.34041103 4.10188948 38.67111192 8.20686436 40 12.3125 C40.3815625 13.47974609 40.763125 14.64699219 41.15625 15.84960938 C41.69765625 17.52700195 41.69765625 17.52700195 42.25 19.23828125 C42.58515625 20.26993408 42.9203125 21.30158691 43.265625 22.36450195 C44 25 44 25 44 28 C44.66 28 45.32 28 46 28 C46.10183594 27.07058594 46.20367187 26.14117187 46.30859375 25.18359375 C47.04768162 20.00997867 48.58852538 15.06580595 50.0625 10.0625 C50.48499023 8.6074707 50.48499023 8.6074707 50.91601562 7.12304688 C51.60645516 4.74746678 52.30264685 2.3735598 53 0 C56.3 0 59.6 0 63 0 C60.78499851 9.59948094 57.87906338 18.89921015 54.8125 28.25 C54.34402817 29.68868072 53.87592692 31.12748216 53.40820312 32.56640625 C52.27639141 36.04566887 51.13961821 39.52328538 50 43 C46.7 43 43.4 43 40 43 C39.76289307 42.21761963 39.52578613 41.43523926 39.28149414 40.62915039 C38.21176312 37.1059319 37.13719904 33.58420609 36.0625 30.0625 C35.68931641 28.83080078 35.31613281 27.59910156 34.93164062 26.33007812 C34.57392578 25.16025391 34.21621094 23.99042969 33.84765625 22.78515625 C33.51773682 21.70113525 33.18781738 20.61711426 32.84790039 19.50024414 C32.23544088 17.0879236 32.23544088 17.0879236 31 16 C30.6443396 17.17357056 30.6443396 17.17357056 30.28149414 18.37084961 C29.21176312 21.8940681 28.13719904 25.41579391 27.0625 28.9375 C26.50272461 30.78504883 26.50272461 30.78504883 25.93164062 32.66992188 C25.57392578 33.83974609 25.21621094 35.00957031 24.84765625 36.21484375 C24.51773682 37.29886475 24.18781738 38.38288574 23.84790039 39.49975586 C23 42 23 42 22 43 C20.48071962 43.07179964 18.95832518 43.08392007 17.4375 43.0625 C16.61121094 43.05347656 15.78492188 43.04445312 14.93359375 43.03515625 C14.29550781 43.02355469 13.65742188 43.01195312 13 43 C11.58072468 38.7717044 10.16507617 34.54220259 8.75 30.3125 C8.35425781 29.13365234 7.95851563 27.95480469 7.55078125 26.74023438 C5.55597019 20.77215211 3.59303222 14.7951741 1.703125 8.79296875 C1.37473633 7.75035889 1.04634766 6.70774902 0.70800781 5.63354492 C0 3 0 3 0 0 Z " fill="#0F1628" transform="translate(285,22)"/>
<path d="M0 0 C3.53570788 2.42706477 5.57109418 5.49740358 7.1875 9.4375 C7.51821243 12.22241872 7.66127665 14.57805289 7.578125 17.33984375 C7.57246521 18.0624086 7.56680542 18.78497345 7.56097412 19.5294342 C7.53878257 21.81199586 7.48862549 24.09292198 7.4375 26.375 C7.41741244 27.93291986 7.39916564 29.4908646 7.3828125 31.04882812 C7.3389753 34.8456715 7.27007421 38.64130957 7.1875 42.4375 C4.2175 42.4375 1.2475 42.4375 -1.8125 42.4375 C-1.8218457 41.5496582 -1.83119141 40.66181641 -1.84082031 39.74707031 C-1.88490681 36.44404081 -1.94654746 33.14229993 -2.02001953 29.83984375 C-2.04819611 28.41223063 -2.06942727 26.98446247 -2.08349609 25.55664062 C-2.10497392 23.50049668 -2.15163974 21.44620998 -2.203125 19.390625 C-2.22407227 18.15473633 -2.24501953 16.91884766 -2.26660156 15.64550781 C-2.90395456 11.9000613 -3.81807649 10.70164378 -6.8125 8.4375 C-10.19923714 7.69936498 -13.40159038 7.85861018 -16.8125 8.4375 C-19.38887471 10.32265223 -20.40917428 11.63084857 -21.8125 14.4375 C-21.96691209 16.54124996 -22.06242639 18.64945119 -22.12890625 20.7578125 C-22.17080078 22.01464844 -22.21269531 23.27148438 -22.25585938 24.56640625 C-22.29517578 25.88511719 -22.33449219 27.20382813 -22.375 28.5625 C-22.41819512 29.90235751 -22.46180973 31.24220156 -22.50585938 32.58203125 C-22.61220981 35.86707815 -22.71423808 39.15220281 -22.8125 42.4375 C-25.7825 42.4375 -28.7525 42.4375 -31.8125 42.4375 C-31.8125 28.2475 -31.8125 14.0575 -31.8125 -0.5625 C-28.8425 -0.5625 -25.8725 -0.5625 -22.8125 -0.5625 C-22.4825 0.7575 -22.1525 2.0775 -21.8125 3.4375 C-21.07 2.798125 -20.3275 2.15875 -19.5625 1.5 C-14.0774686 -2.61377355 -6.16364047 -3.10838765 0 0 Z " fill="#0D1325" transform="translate(407.8125,22.5625)"/>
<path d="M0 0 C3.3632464 1.98003233 6.07569912 4.28171142 8.5625 7.3125 C8.5625 8.3025 8.5625 9.2925 8.5625 10.3125 C5.8125 11.9375 5.8125 11.9375 2.5625 13.3125 C0.02794669 12.56704314 -1.23174738 11.51063215 -3.125 9.6875 C-6.76880586 7.52091273 -10.31013903 7.65441125 -14.4375 8.3125 C-18.2401029 10.3175088 -20.05540841 11.73936262 -22.4375 15.3125 C-23.08987324 19.68683428 -23.47151151 24.32519906 -21.38671875 28.33203125 C-19.63117363 30.46043551 -17.91373989 32.07438006 -15.4375 33.3125 C-10.31426569 33.70240987 -4.95230935 34.07964121 -0.4375 31.3125 C-0.1075 30.3225 0.2225 29.3325 0.5625 28.3125 C6.3125 30.1875 6.3125 30.1875 8.5625 31.3125 C7.83477277 35.6788634 5.79196336 37.30163464 2.4453125 39.984375 C-3.00304087 43.82761181 -9.00105589 43.93119695 -15.4375 43.3125 C-21.956635 42.02505862 -26.46200419 38.57109234 -30.4375 33.3125 C-33.76144178 27.4189862 -34.45392025 21.37178844 -32.81640625 14.83203125 C-30.59747849 8.31331458 -27.19911356 4.08920013 -21.4375 0.3125 C-14.85168602 -2.89431792 -6.67766953 -3.13571174 0 0 Z " fill="#101729" transform="translate(511.4375,22.6875)"/>
<path d="M0 0 C2.9375 2.6875 2.9375 2.6875 5 5 C2.64722731 7.72426311 0.37503669 8.8141763 -3 10 C-3.70125 9.34 -4.4025 8.68 -5.125 8 C-8.47798748 5.66748697 -10.00199836 5.39160845 -14 6 C-15.87890434 7.37506099 -15.87890434 7.37506099 -17 9 C-16.54694297 10.98352177 -16.54694297 10.98352177 -15 13 C-11.70541873 14.3968147 -8.44467841 15.49045131 -5.02929688 16.53515625 C0.29479731 18.31806291 2.94376203 20.22126392 6 25 C6.60430833 28.52513191 6.03074456 31.58886192 5 35 C1.93917194 39.19770705 -0.93864882 40.98772976 -6 42 C-13.04225844 42.7350171 -18.63964085 42.70643299 -24.5078125 38.4453125 C-26.49615734 36.51942875 -27.38611628 34.68574125 -28 32 C-22.25 28 -22.25 28 -20 28 C-19.29875 28.825 -18.5975 29.65 -17.875 30.5 C-14.89206074 33.09386022 -14.48489847 33.36167006 -10.8125 33.375 C-7.20018841 33.24905749 -7.20018841 33.24905749 -5 32 C-5 30.35 -5 28.7 -5 27 C-8.16652937 25.6232481 -11.31404993 24.25526166 -14.55078125 23.05078125 C-23.16401595 19.82241328 -23.16401595 19.82241328 -26 16 C-27.23534045 12.29397865 -27.45528745 9.90246386 -27 6 C-24.8509548 2.41585415 -22.22907153 -0.23598256 -18.6875 -2.4375 C-11.83581369 -3.87157388 -6.21565848 -3.46642492 0 0 Z " fill="#101728" transform="translate(594,24)"/>
<path d="M0 0 C3.34212311 2.2787203 5.31708547 4.65496607 7.75 7.875 C3.79 9.855 3.79 9.855 -0.25 11.875 C-0.95125 11.215 -1.6525 10.555 -2.375 9.875 C-5.72680735 7.54330793 -7.25453212 7.35385202 -11.25 7.875 C-12.24 8.535 -13.23 9.195 -14.25 9.875 C-14.25 11.195 -14.25 12.515 -14.25 13.875 C-12.75047375 14.48034154 -11.25034778 15.0841975 -9.75 15.6875 C-8.83863281 16.05746094 -7.92726563 16.42742188 -6.98828125 16.80859375 C-5.33652143 17.45186113 -3.66950843 18.05983811 -1.98046875 18.59765625 C3.25994646 20.27098195 5.8292475 22.1287772 8.75 26.875 C9.44441935 31.19583152 9.08021973 33.23902126 7.0625 37.125 C3.49095393 41.37224397 -0.32524996 43.57169259 -5.88671875 44.1484375 C-12.97837161 44.38452325 -17.92278011 43.81502847 -23.25 38.875 C-25.25 36.0625 -25.25 36.0625 -26.25 33.875 C-23.61 32.555 -20.97 31.235 -18.25 29.875 C-17.404375 30.7 -16.55875 31.525 -15.6875 32.375 C-13.02153292 34.60506251 -12.23078166 34.87728014 -8.5625 35.3125 C-5.11759876 35.10521604 -5.11759876 35.10521604 -2.25 32.875 C-2.13151589 30.44974917 -2.13151589 30.44974917 -3.25 27.875 C-5.91153893 26.59685984 -8.26908854 25.67031927 -11.0625 24.8125 C-19.96501703 21.98743459 -19.96501703 21.98743459 -23.25 17.875 C-24.86196185 14.65107629 -24.69914272 11.37050204 -24.25 7.875 C-22.41694665 3.82700719 -20.59101793 1.7288051 -16.5625 0 C-10.87403572 -1.77963128 -5.64150148 -1.95282744 0 0 Z " fill="#101628" transform="translate(551.25,22.125)"/>
<path d="M0 0 C0 4.62 0 9.24 0 14 C3.63 14 7.26 14 11 14 C11 16.97 11 19.94 11 23 C7.37 23 3.74 23 0 23 C0.33 30.92 0.66 38.84 1 47 C4.3 47.66 7.6 48.32 11 49 C11 51.64 11 54.28 11 57 C-1.89265303 57.86078544 -1.89265303 57.86078544 -5.75 54.6875 C-9.04188057 50.75553155 -9.12189063 47.98757941 -9.09765625 43.01953125 C-9.09443359 41.85615234 -9.09121094 40.69277344 -9.08789062 39.49414062 C-9.07951172 38.27919922 -9.07113281 37.06425781 -9.0625 35.8125 C-9.05798828 34.58595703 -9.05347656 33.35941406 -9.04882812 32.09570312 C-9.03703065 29.06375332 -9.02056921 26.03190094 -9 23 C-11.64 23 -14.28 23 -17 23 C-17 20.03 -17 17.06 -17 14 C-14.36 14 -11.72 14 -9 14 C-9 10.04 -9 6.08 -9 2 C-3.375 0 -3.375 0 0 0 Z " fill="#0C1223" transform="translate(175,8)"/>
<path d="M0 0 C5.28670055 2.1820676 8.95335123 5.8877923 12.8125 10 C17.40476313 14.84376639 22.95707167 17.34111154 29 20 C29 20.33 29 20.66 29 21 C11.84 21 -5.32 21 -23 21 C-23 10 -23 10 -21.57421875 7.24609375 C-20.95160156 6.64925781 -20.32898438 6.05242188 -19.6875 5.4375 C-19.07261719 4.81746094 -18.45773438 4.19742188 -17.82421875 3.55859375 C-12.31208006 -1.15092089 -6.98615182 -0.91088359 0 0 Z " fill="#FDFEFE" transform="translate(23,52)"/>
<path d="M0 0 C4.1460495 1.71249871 6.76513235 4.10967484 9 8 C9.67902043 12.57961555 9.58691297 16.57905282 7.8125 20.875 C2.79585295 26.7565862 2.79585295 26.7565862 -1.59375 27.3515625 C-6.7271012 27.50335514 -11.0205659 27.60636215 -15 24 C-18.54507955 20.08818808 -18.6125086 15.80184479 -18.49609375 10.734375 C-17.7051922 6.37507512 -15.35733934 3.76589096 -12 1 C-8.31088477 -0.84455761 -4.03542855 -0.35062965 0 0 Z " fill="#FBFBFC" transform="translate(218,30)"/>
<path d="M0 0 C4.40617281 2.16303029 7.1644597 4.41114924 9 9 C9.5608442 13.276437 9.49981102 16.81623706 7.8125 20.8125 C2.89898206 26.74260785 2.89898206 26.74260785 -1.59375 27.3515625 C-6.7271012 27.50335514 -11.0205659 27.60636215 -15 24 C-18.54507955 20.08818808 -18.6125086 15.80184479 -18.49609375 10.734375 C-17.7051922 6.37507512 -15.35733934 3.76589096 -12 1 C-8.28763586 -0.85618207 -4.05156912 -0.44809981 0 0 Z " fill="#FCFCFC" transform="translate(451,30)"/>
<path d="M0 0 C2.97 0 5.94 0 9 0 C9 20.79 9 41.58 9 63 C6.03 63 3.06 63 0 63 C0 42.21 0 21.42 0 0 Z " fill="#0C1224" transform="translate(268,2)"/>
<path d="M0 0 C2.97 0 5.94 0 9 0 C9 14.19 9 28.38 9 43 C6.03 43 3.06 43 0 43 C0 28.81 0 14.62 0 0 Z " fill="#0E1528" transform="translate(356,22)"/>
<path d="M0 0 C2.97 0 5.94 0 9 0 C9 14.19 9 28.38 9 43 C6.03 43 3.06 43 0 43 C0 28.81 0 14.62 0 0 Z " fill="#0B1123" transform="translate(248,22)"/>
<path d="M0 0 C1.9375 1.0625 1.9375 1.0625 3 3 C2.8125 6.625 2.8125 6.625 2 10 C-0.79870027 11.39935013 -2.90498792 11.25265405 -6 11 C-7.875 9.8125 -7.875 9.8125 -9 8 C-9.42822025 5.14519831 -9.40659584 3.65507108 -7.875 1.1875 C-5.12844028 -0.55198782 -3.18153026 -0.39769128 0 0 Z " fill="#121828" transform="translate(363,4)"/>
<path d="M0 0 C3.0625 0.3125 3.0625 0.3125 5 1.375 C6.69431173 4.46462727 5.80201685 6.98467418 5.0625 10.3125 C4.0625 11.3125 4.0625 11.3125 0.625 11.5 C-2.9375 11.3125 -2.9375 11.3125 -4.9375 9.3125 C-5.1875 5.8125 -5.1875 5.8125 -4.9375 2.3125 C-2.9375 0.3125 -2.9375 0.3125 0 0 Z " fill="#0F1526" transform="translate(251.9375,3.6875)"/>
</svg>
